<svg id="Layer_1" data-name="Layer 1" xmlns="http://www.w3.org/2000/svg" viewBox="0 0 567.83 600"><defs><style>.cls-1{fill:#ff3704;}.cls-2{fill:#fff2aa;}.cls-3{fill:#fcf9f1;}.cls-4{fill:#b77154;}.cls-5{fill:#f2e7e9;}.cls-6{fill:#ffb56c;}.cls-7{fill:#ff6c38;}</style></defs><path class="cls-1" d="M326.36,597.5c-33.91-23-215.12-109-209.95-348.75-.23-60.14.29-135.48-.32-195.62C116,41.64,302.56-2.33,411.66,16.77c-42.72,9.19-64,24.39-64,24.39-14.41,2.07-78.5-8.84-188,38,.37,69.94-.58,150.59.56,220.51,2.56,139.4,106,227.48,106,227.48C229.24,437.91,443.89,239.59,339.19,224,477.72,219.76,277.65,399.41,326.36,597.5Z" transform="translate(-116.09 2.5)"/><path class="cls-2" d="M281.93,148.65c.74,2.17,8.89,6.58,8.89,6.58-6.9,11.52-5,19.11-5,19.11s-.89-4.14,12.84-11.56A41,41,0,0,0,322,169.2c4.86-7.77,58.15-26.07,73.5-21.58-43.6,22-107.6,50-113.36,112.77C250.53,241.24,244.79,185.93,281.93,148.65Z" transform="translate(-116.09 2.5)"/><path class="cls-3" d="M281.93,148.65c.74,2.17,7.85,6,7.85,6-23.27,23.84-35.26,80.67-7.66,105.75C250.53,241.24,244.79,185.93,281.93,148.65Z" transform="translate(-116.09 2.5)"/><path class="cls-4" d="M395.48,147.62c-43.6,22-107.6,50-113.36,112.77C273,202.91,331.7,156.4,395.48,147.62Z" transform="translate(-116.09 2.5)"/><path class="cls-5" d="M367.1,123.78c4.06-2.77,15.29-9.59,15.29-9.59,8.21,7.24,14.92,1.35,13-7.53,0,0,21.38-11.37,22.54-10.78-3.06,9.12-3.82,23.83-9.63,26.22C395.49,127.34,366.69,125.16,367.1,123.78Z" transform="translate(-116.09 2.5)"/><path class="cls-6" d="M460.3,121.33s-13-12-37.8-12.1l1.44-12S460,78.08,471.75,68c-27.66,4.9-55.51,9-82.93,15-19.85,4.36-35.57,27.37-44.09,47.11-7.12-4.22-12-17.36-12-17.36s-2.17,27.84-1.76,28.71c0,0-30.42-3.53-32.36-7.56,7.89-24.84,29.72-54,51.11-68.23,28-18.62,59.49-28,92.45-32.19,30.89-4,62-6,92.89-10.14C558.93,20.13,582,13.54,602.51-2.5c3.21,26.26-2.61,48.67-19.15,70.58,30.74,4.56,59.3,11.58,83.24,34.1l-60.39,16.35c36.3,17.76,65.45,38.67,77.7,79.21-40.1-22.61-64.6-26.83-91.56-20.14,22.15,15.33,53.16,49.74,61.52,78.42-18.08-12.15-41.12-26.74-53.66-23.43,16.46,31.09,18.47,65.44,7.88,102.66l-45.79-74c12.54,45.1-36.46,190.64-73.79,222.43,0-9.12,14.73-84.44,5.4-104.85,0,0-85.19,76.07-76.07,168.13-92-119.77,164.29-318.47-16.34-410.83C417.64,127.36,437.84,117.46,460.3,121.33Z" transform="translate(-116.09 2.5)"/><path class="cls-7" d="M460.3,121.33s-13-12-37.8-12.1l1.44-12S460,78.08,471.75,68c-27.66,4.9-55.51,9-82.93,15-19.85,4.36-35.57,27.37-44.09,47.11-7.12-4.22-12-17.36-12-17.36s-2.17,27.84-1.76,28.71c0,0-30.42-3.53-32.36-7.56C379.73,10.36,522.44,64.8,586.41,17.35c-1.85,28.78-20.79,39.93-37.33,61.83,34.31-1.65,43.65-6.32,78.35,12.84-19.7,5.33-30.72,9.52-49.38,28.58,36.29,17.76,70.57,23.13,105.86,77.14-40.1-22.61-64.6-26.83-91.56-20.14,22.15,15.33,53.16,49.74,61.52,78.42-22.55-42.1-110.24-71.46-110.24-71.46,13.81,12.84,28.2,18.86,34.81,60.67-9.87-18-21-19.93-46.67-31.11,0,0,10.84,30.13-26.83,80.88,9.63-43.84,18.28-128.63-103.44-158.85C417.64,127.36,437.84,117.46,460.3,121.33Z" transform="translate(-116.09 2.5)"/><path class="cls-1" d="M683.89,197.75c-35.28-54-69.56-59.37-105.86-77.15,18.66-19,29.7-23.23,49.4-28.58-34.73-19.14-44.06-14.46-78.36-12.83,16.53-21.9,35.48-33,37.33-61.81-64,47.42-206.69-7-287.77,116.51,7.91-24.84,29.73-54,51.12-68.23,28-18.63,59.48-28,92.44-32.19,30.91-3.95,62-6,92.9-10.16,23.82-3.15,46.84-9.75,67.43-25.8,3.18,26.26-2.62,48.69-19.17,70.58,30.74,4.57,59.29,11.58,83.25,34.09-19.7,5.35-38.12,10.32-60.39,16.36C642.51,136.29,671.65,157.22,683.89,197.75Z" transform="translate(-116.09 2.5)"/></svg>